<?xml version="1.0" encoding="UTF-8" standalone="no"?>
<!-- Created with Inkscape (http://www.inkscape.org/) -->

<svg
   version="1.1"
   id="svg1"
   width="880"
   height="880"
   viewBox="0 0 880 880"
   sodipodi:docname="laptop-screwdriver-wrench.svg"
   inkscape:version="1.3.2 (091e20e, 2023-11-25, custom)"
   xmlns:inkscape="http://www.inkscape.org/namespaces/inkscape"
   xmlns:sodipodi="http://sodipodi.sourceforge.net/DTD/sodipodi-0.dtd"
   xmlns="http://www.w3.org/2000/svg"
   xmlns:svg="http://www.w3.org/2000/svg">
  <defs
     id="defs1">
    <clipPath
       clipPathUnits="userSpaceOnUse"
       id="clipPath3">
      <path
         d="M 0,660 H 660 V 0 H 0 Z"
         transform="translate(-47.367701,-316.39261)"
         id="path3" />
    </clipPath>
    <clipPath
       clipPathUnits="userSpaceOnUse"
       id="clipPath5">
      <path
         d="M 0,660 H 660 V 0 H 0 Z"
         transform="translate(-124.3242,-410.78321)"
         id="path5" />
    </clipPath>
    <clipPath
       clipPathUnits="userSpaceOnUse"
       id="clipPath7">
      <path
         d="M 0,660 H 660 V 0 H 0 Z"
         transform="translate(-521.18752,-330.82671)"
         id="path7" />
    </clipPath>
    <clipPath
       clipPathUnits="userSpaceOnUse"
       id="clipPath9">
      <path
         d="M 0,660 H 660 V 0 H 0 Z"
         transform="translate(-124.3242,-410.78321)"
         id="path9" />
    </clipPath>
    <clipPath
       clipPathUnits="userSpaceOnUse"
       id="clipPath11">
      <path
         d="M 0,660 H 660 V 0 H 0 Z"
         transform="translate(-514.04881,-420.64401)"
         id="path11" />
    </clipPath>
    <clipPath
       clipPathUnits="userSpaceOnUse"
       id="clipPath13">
      <path
         d="M 0,660 H 660 V 0 H 0 Z"
         transform="translate(-132.978,-420.91411)"
         id="path13" />
    </clipPath>
    <clipPath
       clipPathUnits="userSpaceOnUse"
       id="clipPath15">
      <path
         d="M 0,660 H 660 V 0 H 0 Z"
         transform="translate(-504.22072,-423.35301)"
         id="path15" />
    </clipPath>
    <clipPath
       clipPathUnits="userSpaceOnUse"
       id="clipPath17">
      <path
         d="M 0,660 H 660 V 0 H 0 Z"
         transform="translate(-134.8423,-399.06051)"
         id="path17" />
    </clipPath>
    <clipPath
       clipPathUnits="userSpaceOnUse"
       id="clipPath19">
      <path
         d="M 0,660 H 660 V 0 H 0 Z"
         transform="translate(-126.2275,-319.88571)"
         id="path19" />
    </clipPath>
    <clipPath
       clipPathUnits="userSpaceOnUse"
       id="clipPath21">
      <path
         d="M 0,660 H 660 V 0 H 0 Z"
         transform="translate(-80.9785,-437.18551)"
         id="path21" />
    </clipPath>
    <clipPath
       clipPathUnits="userSpaceOnUse"
       id="clipPath23">
      <path
         d="M 0,660 H 660 V 0 H 0 Z"
         transform="translate(-37.993701,-293.2246)"
         id="path23" />
    </clipPath>
    <clipPath
       clipPathUnits="userSpaceOnUse"
       id="clipPath25">
      <path
         d="M 0,660 H 660 V 0 H 0 Z"
         transform="translate(-40.994101,-309.90821)"
         id="path25" />
    </clipPath>
    <clipPath
       clipPathUnits="userSpaceOnUse"
       id="clipPath27">
      <path
         d="M 0,660 H 660 V 0 H 0 Z"
         transform="translate(-40.994101,-309.90821)"
         id="path27" />
    </clipPath>
    <clipPath
       clipPathUnits="userSpaceOnUse"
       id="clipPath29">
      <path
         d="M 0,660 H 660 V 0 H 0 Z"
         transform="translate(-40.613801,-326.94631)"
         id="path29" />
    </clipPath>
    <clipPath
       clipPathUnits="userSpaceOnUse"
       id="clipPath31">
      <path
         d="M 0,660 H 660 V 0 H 0 Z"
         transform="translate(-82.460905,-436.91891)"
         id="path31" />
    </clipPath>
    <clipPath
       clipPathUnits="userSpaceOnUse"
       id="clipPath33">
      <path
         d="M 0,660 H 660 V 0 H 0 Z"
         transform="translate(-63.401402,-279.85251)"
         id="path33" />
    </clipPath>
    <clipPath
       clipPathUnits="userSpaceOnUse"
       id="clipPath35">
      <path
         d="M 0,660 H 660 V 0 H 0 Z"
         transform="translate(-590.38672,-367.88281)"
         id="path35" />
    </clipPath>
    <clipPath
       clipPathUnits="userSpaceOnUse"
       id="clipPath37">
      <path
         d="M 0,660 H 660 V 0 H 0 Z"
         transform="translate(-588.09382,-421.42091)"
         id="path37" />
    </clipPath>
    <clipPath
       clipPathUnits="userSpaceOnUse"
       id="clipPath39">
      <path
         d="M 0,660 H 660 V 0 H 0 Z"
         transform="translate(-571.50781,-395.98541)"
         id="path39" />
    </clipPath>
    <clipPath
       clipPathUnits="userSpaceOnUse"
       id="clipPath41">
      <path
         d="M 0,660 H 660 V 0 H 0 Z"
         transform="translate(-579.71581,-220.666)"
         id="path41" />
    </clipPath>
    <clipPath
       clipPathUnits="userSpaceOnUse"
       id="clipPath43">
      <path
         d="M 0,660 H 660 V 0 H 0 Z"
         transform="translate(-596.30081,-246.10161)"
         id="path43" />
    </clipPath>
    <clipPath
       clipPathUnits="userSpaceOnUse"
       id="clipPath45">
      <path
         d="M 0,660 H 660 V 0 H 0 Z"
         transform="translate(-576.88672,-359.28611)"
         id="path45" />
    </clipPath>
  </defs>
  <sodipodi:namedview
     id="namedview1"
     pagecolor="#ffffff"
     bordercolor="#000000"
     borderopacity="0.25"
     inkscape:showpageshadow="2"
     inkscape:pageopacity="0.0"
     inkscape:pagecheckerboard="0"
     inkscape:deskcolor="#d1d1d1"
     inkscape:zoom="0.67272727"
     inkscape:cx="439.25676"
     inkscape:cy="440"
     inkscape:window-width="1440"
     inkscape:window-height="830"
     inkscape:window-x="-6"
     inkscape:window-y="-6"
     inkscape:window-maximized="1"
     inkscape:current-layer="g1">
    <inkscape:page
       x="0"
       y="0"
       inkscape:label="1"
       id="page1"
       width="880"
       height="880"
       margin="257.03467 29.317333 154.43201 33.694"
       bleed="0" />
  </sodipodi:namedview>
  <g
     id="g1"
     inkscape:groupmode="layer"
     inkscape:label="1">
    <g
       id="group-MC0">
      <path
         id="path2"
         d="m 0,0 16.189,-2.91 19.069,106.033 5.108,7.118 1.482,-0.266 2.308,-8.453 -19.069,-106.032 16.19,-2.913 -1.267,-7.044 -3.337,0.601 -1.689,-9.392 c -4.588,0.824 -9.017,-2.254 -9.842,-6.843 -0.826,-4.586 2.253,-9.017 6.841,-9.841 L 19.537,-109.148 C 17.826,-118.664 8.641,-125.05 -0.875,-123.34 h -0.001 c -9.516,1.714 -15.9,10.898 -14.189,20.413 l 12.446,69.208 c 4.588,-0.826 9.016,2.254 9.842,6.842 0.824,4.586 -2.254,9.017 -6.842,9.841 l 1.689,9.393 -3.337,0.599 z m 471.875,83.839 1.561,9.86 L 83.711,83.839 64.422,-93.442 c -0.482,-4.439 0.807,-8.443 3.787,-11.765 2.981,-3.321 6.822,-5.036 11.285,-5.036 h 226.615 169.983 c 4.464,0 8.305,1.715 11.284,5.036 2.981,3.322 4.27,7.326 3.788,11.765 z m 67.228,-190.117 c -9.629,8.092 -12.782,20.481 -6.282,31.383 4.131,6.927 5.446,14.222 3.989,22.155 l -16.059,87.507 c -1.217,6.639 -4.583,11.927 -10.079,15.845 -0.165,0.118 -0.329,0.239 -0.492,0.361 -5.353,4.048 -8.672,10.66 -9.638,17.169 V 68.14 l -4.603,25.73 4.402,2.47 13.396,-23.875 c 4.336,-7.726 27.513,5.278 23.18,13.004 l -13.397,23.876 4.402,2.469 19.561,-17.337 h -0.003 c 2.618,-2.184 4.891,-4.872 6.658,-8.021 4.189,-7.473 4.126,-15.53 -0.129,-22.945 -0.082,-0.139 -0.163,-0.28 -0.244,-0.418 -4.134,-6.926 -5.449,-14.221 -3.992,-22.155 l 16.058,-87.507 c 1.219,-6.639 4.583,-11.926 10.081,-15.844 0.122,-0.087 0.244,-0.175 0.364,-0.266 l 0.12,-0.089 c 5.359,-4.052 8.678,-10.654 9.643,-17.174 h 0.003 l 4.602,-25.73 -4.402,-2.471 -13.395,23.876 c -4.336,7.726 -27.514,-5.278 -23.18,-13.003 l 13.397,-23.875 -4.403,-2.471 -19.56,17.337 z"
         style="fill:#e8e8e7;fill-opacity:1;fill-rule:evenodd;stroke:none"
         transform="matrix(1.3333333,0,0,-1.3333333,63.156933,458.1432)"
         clip-path="url(#clipPath3)" />
      <path
         id="path4"
         d="m 0,0 h 388.164 l 19.29,-177.283 c 0.482,-4.435 -0.808,-8.441 -3.788,-11.762 -2.98,-3.323 -6.822,-5.038 -11.285,-5.038 H -4.217 c -4.463,0 -8.304,1.715 -11.285,5.038 -2.98,3.321 -4.269,7.327 -3.787,11.762 z"
         style="fill:#463d3b;fill-opacity:1;fill-rule:evenodd;stroke:none"
         transform="matrix(1.3333333,0,0,-1.3333333,165.7656,332.28907)"
         clip-path="url(#clipPath5)" />
      <path
         id="path6"
         d="m 0,0 10.591,-97.327 c 0.481,-4.434 -0.808,-8.44 -3.788,-11.761 -2.981,-3.324 -6.822,-5.038 -11.285,-5.038 h -169.983 l -231.717,108.436 8.367,76.896 z"
         style="fill:#625754;fill-opacity:1;fill-rule:evenodd;stroke:none"
         transform="matrix(1.3333333,0,0,-1.3333333,694.91667,438.89773)"
         clip-path="url(#clipPath7)" />
      <path
         id="path8"
         d="m 0,0 h 388.164 l 19.291,121.857 c 0.472,2.985 -0.306,5.741 -2.268,8.039 -1.961,2.298 -4.564,3.497 -7.584,3.497 H -9.438 c -3.022,0 -5.622,-1.199 -7.585,-3.497 -1.962,-2.298 -2.74,-5.054 -2.268,-8.039 z"
         style="fill:#b2a29e;fill-opacity:1;fill-rule:evenodd;stroke:none"
         transform="matrix(1.3333333,0,0,-1.3333333,165.7656,332.28907)"
         clip-path="url(#clipPath9)" />
      <path
         id="path10"
         d="m 0,0 9.294,58.706 -346.487,64.826 h -61.969 c -3.022,0 -5.623,-1.199 -7.585,-3.497 -1.792,-2.098 -2.596,-4.579 -2.363,-7.267 z"
         style="fill:#d7c9c4;fill-opacity:1;fill-rule:evenodd;stroke:none"
         transform="matrix(1.3333333,0,0,-1.3333333,685.3984,319.14133)"
         clip-path="url(#clipPath11)" />
      <path
         id="path12"
         d="m 0,0 h 370.857 l 17.909,113.131 H -17.91 Z"
         style="fill:#2f2825;fill-opacity:1;fill-rule:evenodd;stroke:none"
         transform="matrix(1.3333333,0,0,-1.3333333,177.304,318.7812)"
         clip-path="url(#clipPath13)" />
      <path
         id="path14"
         d="m 0,0 9.16,57.86 -282.376,52.832 h -115.936 l 0.567,-3.582 z"
         style="fill:#463d3b;fill-opacity:1;fill-rule:evenodd;stroke:none"
         transform="matrix(1.3333333,0,0,-1.3333333,672.29427,315.52933)"
         clip-path="url(#clipPath15)" />
      <path
         id="path16"
         d="M 0,0 -9.197,-84.522 H 376.326 L 367.128,0 Z m 139.972,-92.235 -4.598,-42.26 h 96.38 l -4.597,42.26 z"
         style="fill:#766864;fill-opacity:1;fill-rule:evenodd;stroke:none"
         transform="matrix(1.3333333,0,0,-1.3333333,179.78973,347.91933)"
         clip-path="url(#clipPath17)" />
      <path
         id="path18"
         d="M 0,0 11.426,-5.348 H 384.94 L 382.933,13.093 13.75,79.175 H 8.615 Z m 148.587,-13.06 -4.599,-42.26 h 96.381 l -4.598,42.26 z"
         style="fill:#948681;fill-opacity:1;fill-rule:evenodd;stroke:none"
         transform="matrix(1.3333333,0,0,-1.3333333,168.30333,453.48573)"
         clip-path="url(#clipPath19)" />
      <path
         id="path20"
         d="m 0,0 1.482,-0.267 2.309,-8.451 -19.47,-108.258 -8.897,1.6 19.469,108.257 z"
         style="fill:#d7c9c4;fill-opacity:1;fill-rule:evenodd;stroke:none"
         transform="matrix(1.3333333,0,0,-1.3333333,107.97133,297.086)"
         clip-path="url(#clipPath21)" />
      <path
         id="path22"
         d="M 0,0 34.603,-6.224 22.157,-75.429 C 20.446,-84.945 11.26,-91.33 1.745,-89.619 H 1.744 c -9.516,1.712 -15.901,10.896 -14.19,20.412 z"
         style="fill:#cc2d23;fill-opacity:1;fill-rule:evenodd;stroke:none"
         transform="matrix(1.3333333,0,0,-1.3333333,50.658267,489.03387)"
         clip-path="url(#clipPath23)" />
      <path
         id="path24"
         d="m 0,0 34.603,-6.224 c -4.588,0.826 -9.017,-2.252 -9.842,-6.84 -0.825,-4.589 2.254,-9.017 6.842,-9.843 L -3,-16.684 c 4.588,-0.823 9.016,2.254 9.842,6.842 C 7.667,-5.253 4.588,-0.824 0,0"
         style="fill:#971a1f;fill-opacity:1;fill-rule:evenodd;stroke:none"
         transform="matrix(1.3333333,0,0,-1.3333333,54.6588,466.78907)"
         clip-path="url(#clipPath25)" />
      <path
         id="path26"
         d="M 0,0 34.603,-6.224 36.447,4.034 1.845,10.258 Z"
         style="fill:#cc2d23;fill-opacity:1;fill-rule:evenodd;stroke:none"
         transform="matrix(1.3333333,0,0,-1.3333333,54.6588,466.78907)"
         clip-path="url(#clipPath27)" />
      <path
         id="path28"
         d="m 0,0 41.276,-7.423 -1.267,-7.045 -41.276,7.423 z"
         style="fill:#eb3e1f;fill-opacity:1;fill-rule:evenodd;stroke:none"
         transform="matrix(1.3333333,0,0,-1.3333333,54.151733,444.0716)"
         clip-path="url(#clipPath29)" />
      <path
         id="path30"
         d="M 0,0 -1.055,-5.87 2.309,-8.452 Z M -1.482,0.267 -2.538,-5.603 -6.59,-6.852 Z"
         style="fill:#948681;fill-opacity:1;fill-rule:evenodd;stroke:none"
         transform="matrix(1.3333333,0,0,-1.3333333,109.94787,297.44147)"
         clip-path="url(#clipPath31)" />
      <path
         id="path32"
         d="m 0,0 v 0 c 2.515,-0.452 4.202,-2.881 3.749,-5.395 l -9.2,-51.165 c -0.453,-2.513 -2.88,-4.201 -5.395,-3.748 -2.515,0.452 -4.203,2.879 -3.75,5.396 l 9.2,51.162 C -4.943,-1.236 -2.516,0.452 0,0 m -19.279,3.467 v 0 c 2.514,-0.452 4.203,-2.88 3.75,-5.395 L -24.73,-53.09 c -0.453,-2.516 -2.88,-4.203 -5.395,-3.752 -2.516,0.454 -4.203,2.881 -3.751,5.395 l 9.202,51.164 c 0.452,2.515 2.879,4.202 5.395,3.75"
         style="fill:#971a1f;fill-opacity:1;fill-rule:evenodd;stroke:none"
         transform="matrix(1.3333333,0,0,-1.3333333,84.5352,506.86333)"
         clip-path="url(#clipPath33)" />
      <path
         id="path34"
         d="m 0,0 16.059,-87.507 c 1.218,-6.64 4.583,-11.928 10.079,-15.845 2.608,-1.858 4.912,-4.384 6.753,-7.668 1.766,-3.149 2.876,-6.49 3.376,-9.862 l 10e-4,0.001 4.603,-25.728 -4.402,-2.471 -13.397,23.876 c -4.333,7.725 -27.512,-5.278 -23.176,-13.006 l 13.394,-23.874 -4.402,-2.472 -19.561,17.338 0.002,10e-4 c -2.617,2.185 -4.889,4.87 -6.657,8.022 -4.65,8.289 -3.702,16.532 0.374,23.363 4.134,6.927 5.448,14.22 3.991,22.154 l -16.058,87.507 c -1.219,6.639 -4.583,11.926 -10.08,15.844 -2.608,1.858 -4.911,4.386 -6.752,7.668 -1.768,3.15 -2.876,6.49 -3.376,9.863 l -0.003,-0.002 -4.602,25.729 4.402,2.47 13.397,-23.875 c 4.334,-7.726 27.513,5.279 23.177,13.005 l -13.397,23.875 4.405,2.47 19.559,-17.337 -0.002,-0.001 C 0.325,51.354 2.598,48.668 4.364,45.518 9.015,37.228 8.065,28.985 3.991,22.154 -0.143,15.228 -1.457,7.934 0,0"
         style="fill:#b2a29e;fill-opacity:1;fill-rule:evenodd;stroke:none"
         transform="matrix(1.3333333,0,0,-1.3333333,787.18227,389.4896)"
         clip-path="url(#clipPath35)" />
      <path
         id="path36"
         d="m 0,0 c 2.618,-2.184 4.891,-4.871 6.657,-8.021 16.008,-28.537 -34.307,-56.543 -50.218,-28.176 -1.767,3.15 -2.876,6.49 -3.376,9.862 l -0.003,-10e-4 -4.601,25.729 4.402,2.47 13.397,-23.875 c 4.334,-7.726 27.512,5.279 23.176,13.005 l -13.396,23.875 4.405,2.47 L 0.004,0.001 Z"
         style="fill:#d7c9c4;fill-opacity:1;fill-rule:evenodd;stroke:none"
         transform="matrix(1.3333333,0,0,-1.3333333,784.12507,318.10547)"
         clip-path="url(#clipPath37)" />
      <path
         id="path38"
         d="M 0,0 C 6.55,3.674 13.436,3.842 15.381,0.375 17.325,-3.091 13.594,-8.88 7.045,-12.554 0.497,-16.228 -6.389,-16.396 -8.335,-12.93 -10.279,-9.463 -6.549,-3.673 0,0"
         style="fill:#b2a29e;fill-opacity:1;fill-rule:evenodd;stroke:none"
         transform="matrix(1.3333333,0,0,-1.3333333,762.0104,352.01947)"
         clip-path="url(#clipPath39)" />
      <path
         id="path40"
         d="m 0,0 c -2.617,2.185 -4.89,4.87 -6.657,8.021 -16.008,28.536 34.306,56.542 50.219,28.176 1.766,-3.149 2.876,-6.49 3.376,-9.862 L 46.939,26.336 51.542,0.607 47.14,-1.863 33.743,22.013 C 29.41,29.737 6.231,16.734 10.566,9.007 l 13.395,-23.874 -4.402,-2.472 -19.561,17.338 z"
         style="fill:#d7c9c4;fill-opacity:1;fill-rule:evenodd;stroke:none"
         transform="matrix(1.3333333,0,0,-1.3333333,772.9544,585.77867)"
         clip-path="url(#clipPath41)" />
      <path
         id="path42"
         d="m 0,0 c -6.548,-3.675 -13.434,-3.843 -15.378,-0.376 -1.946,3.468 1.786,9.256 8.335,12.93 6.549,3.675 13.434,3.843 15.379,0.376 C 10.28,9.463 6.549,3.674 0,0"
         style="fill:#b2a29e;fill-opacity:1;fill-rule:evenodd;stroke:none"
         transform="matrix(1.3333333,0,0,-1.3333333,795.06773,551.86453)"
         clip-path="url(#clipPath43)" />
      <path
         id="path44"
         d="m 0,0 v 0 c 4.726,0.867 9.302,-2.29 10.168,-7.015 l 10.884,-59.301 c 0.869,-4.725 -2.29,-9.3 -7.016,-10.169 -4.726,-0.868 -9.301,2.289 -10.169,7.016 l -10.883,59.3 C -7.883,-5.443 -4.726,-0.868 0,0"
         style="fill:#948681;fill-opacity:1;fill-rule:evenodd;stroke:none"
         transform="matrix(1.3333333,0,0,-1.3333333,769.18227,400.95187)"
         clip-path="url(#clipPath45)" />
    </g>
  </g>
</svg>
